<?xml version="1.0" ?>

<!-- Uploaded to: SVG Repo, www.svgrepo.com, Generator: SVG Repo Mixer Tools -->
<svg fill="#000000" width="40px" height="40px" viewBox="0 0 64 64" id="Layer_1" version="1.1" xml:space="preserve" xmlns="http://www.w3.org/2000/svg" xmlns:xlink="http://www.w3.org/1999/xlink">

<g>

<path d="M12.1,58h39.8L49,34h10.1l-4.2-23H37.8l-0.1,0.9c-0.2,2.7-2.5,4.8-5.2,4.8c-2.7,0-5-2.1-5.2-4.8L27.2,11H9.1L4.9,33.6H15   L12.1,58z M7.3,31.6L10.8,13h14.6c0.7,3.3,3.6,5.8,7.1,5.8c3.4,0,6.4-2.5,7.1-5.8h13.7l3.5,19h-7.9l-0.9-7.8l-2,0.2L49.6,56H14.4   l3.7-31.5l-2-0.2l-0.9,7.4H7.3z"/>

</g>

</svg>