<?xml version="1.0" encoding="iso-8859-1"?>
<!-- Uploaded to: SVG Repo, www.svgrepo.com, Generator: SVG Repo Mixer Tools -->
<svg fill="#000000" height="35px" width="35px" version="1.1" id="Layer_1" xmlns="http://www.w3.org/2000/svg" xmlns:xlink="http://www.w3.org/1999/xlink" 
	 viewBox="0 0 512.001 512.001" xml:space="preserve">
<g>
	<g>
		<path d="M471.324,190.953c-4.306-14.276-10.028-28.089-17.072-41.212c12.808-20.164,10.23-47.299-7.086-64.616l-20.289-20.289
			c-17.317-17.316-44.451-19.898-64.616-7.085c-13.122-7.044-26.937-12.766-41.212-17.072C315.847,17.361,294.836,0,270.347,0
			h-28.693c-24.488,0-45.499,17.362-50.7,40.677c-14.275,4.305-28.09,10.028-41.212,17.072
			c-20.166-12.81-47.301-10.232-64.616,7.085l-20.29,20.289c-17.315,17.318-19.895,44.452-7.085,64.616
			c-7.044,13.122-12.766,26.935-17.072,41.212C17.362,196.154,0,217.165,0,241.654v28.693c0,24.489,17.362,45.5,40.677,50.7
			c4.306,14.277,10.029,28.09,17.072,41.212c-12.808,20.165-10.231,47.299,7.086,64.616l20.288,20.289
			c17.317,17.317,44.45,19.9,64.616,7.086c13.121,7.044,26.934,12.765,41.212,17.071c5.202,23.316,26.212,40.678,50.7,40.678h28.693
			c24.489,0,45.5-17.362,50.702-40.678c14.277-4.305,28.09-10.028,41.212-17.071c20.164,12.809,47.299,10.23,64.615-7.086
			l20.289-20.289c17.317-17.316,19.896-44.451,7.086-64.616c7.045-13.122,12.767-26.937,17.072-41.212
			c23.315-5.202,40.677-26.211,40.677-50.7v-28.693C512.001,217.165,494.639,196.154,471.324,190.953z M491.602,270.347
			c0,16.371-12.771,30.18-29.075,31.439c-4.308,0.333-7.939,3.345-9.063,7.518c-4.583,17.018-11.359,33.378-20.143,48.625
			c-2.158,3.745-1.721,8.444,1.091,11.727c10.64,12.421,9.906,31.218-1.67,42.794l-20.29,20.289
			c-11.576,11.578-30.373,12.313-42.794,1.672c-3.282-2.812-7.982-3.248-11.727-1.091c-15.245,8.784-31.604,15.561-48.625,20.143
			c-4.172,1.124-7.183,4.754-7.517,9.063c-1.262,16.305-15.072,29.077-31.442,29.077h-28.693c-16.371,0-30.18-12.771-31.442-29.076
			c-0.334-4.309-3.344-7.939-7.517-9.063c-17.02-4.583-33.38-11.36-48.625-20.143c-1.585-0.914-3.341-1.362-5.089-1.362
			c-2.379,0-4.745,0.831-6.638,2.454c-12.421,10.639-31.218,9.905-42.795-1.672l-20.289-20.289
			c-11.576-11.576-12.309-30.373-1.67-42.794c2.812-3.283,3.249-7.982,1.091-11.727c-8.784-15.245-15.561-31.605-20.143-48.626
			c-1.124-4.172-4.755-7.183-9.063-7.517c-16.304-1.26-29.076-15.069-29.076-31.44v-28.693c0-16.371,12.771-30.182,29.076-31.442
			c4.308-0.333,7.939-3.344,9.063-7.517c4.584-17.021,11.361-33.381,20.143-48.626c2.158-3.745,1.721-8.444-1.091-11.727
			c-10.64-12.421-9.906-31.217,1.67-42.794l20.289-20.287c11.576-11.577,30.373-12.312,42.795-1.671
			c3.283,2.813,7.982,3.25,11.727,1.091c15.247-8.785,31.606-15.563,48.625-20.144c4.172-1.124,7.183-4.754,7.517-9.063
			c1.261-16.304,15.071-29.076,31.441-29.076h28.693c16.371,0,30.182,12.771,31.442,29.074c0.334,4.309,3.344,7.939,7.517,9.063
			c17.017,4.581,33.377,11.36,48.625,20.144c3.745,2.158,8.444,1.723,11.727-1.091c12.419-10.64,31.217-9.908,42.794,1.671
			l20.289,20.289c11.576,11.577,12.31,30.373,1.671,42.794c-2.812,3.283-3.25,7.982-1.091,11.727
			c8.784,15.246,15.561,31.605,20.143,48.625c1.124,4.173,4.755,7.184,9.063,7.518c16.304,1.26,29.076,15.07,29.076,31.441V270.347z
			"/>
	</g>
</g>
<g>
	<g>
		<path d="M256,74.965c-99.824,0-181.036,81.212-181.036,181.036S156.176,437.037,256,437.037s181.036-81.212,181.036-181.036
			S355.824,74.965,256,74.965z M256,416.638c-88.576,0-160.637-72.061-160.637-160.637S167.424,95.364,256,95.364
			s160.637,72.061,160.637,160.637S344.576,416.638,256,416.638z"/>
	</g>
</g>
<g>
	<g>
		<path d="M377.303,175.92c-3.108-4.698-9.435-5.988-14.133-2.88c-4.698,3.107-5.987,9.435-2.88,14.133
			c13.51,20.425,20.65,44.226,20.65,68.828c0,5.632,4.566,10.199,10.199,10.199c5.633,0,10.199-4.567,10.199-10.199
			C401.339,227.384,393.027,199.692,377.303,175.92z"/>
	</g>
</g>
<g>
	<g>
		<path d="M355.011,149.603c-1.6-1.489-3.258-2.964-4.927-4.384c-4.291-3.649-10.727-3.128-14.377,1.164
			c-3.648,4.292-3.128,10.729,1.164,14.377c1.438,1.223,2.865,2.493,4.242,3.774c1.965,1.83,4.459,2.734,6.947,2.734
			c2.733,0,5.46-1.091,7.468-3.25C359.365,159.894,359.133,153.441,355.011,149.603z"/>
	</g>
</g>
<g>
	<g>
		<path d="M262.039,245.265v-57.338c18.358,1.006,25.399,9.305,30.68,9.305c5.783,0,9.053-7.545,9.053-11.568
			c0-10.059-21.879-15.843-39.734-16.597v-7.042c0-2.766-3.27-5.281-6.539-5.281c-3.773,0-6.539,2.515-6.539,5.281v7.544
			c-22.633,2.012-46.524,13.077-46.524,44.763c0,32.19,24.141,40.488,46.524,48.284v66.894
			c-28.669-1.259-34.704-20.119-41.745-20.119c-4.778,0-9.305,6.539-9.305,11.568c0,10.562,19.615,27.914,51.05,28.417h0.001v8.299
			c0,2.766,2.766,5.281,6.539,5.281c3.269,0,6.539-2.515,6.539-5.281v-9.053c26.155-3.522,44.26-19.868,44.26-50.548
			C306.299,263.623,283.414,253.062,262.039,245.265z M249.966,240.989c-14.837-5.532-27.411-11.316-27.41-28.668
			c0-16.094,12.322-22.633,27.41-24.142V240.989z M261.031,329.007v-61.612c13.831,5.784,25.148,13.579,25.148,32.693
			C286.179,316.684,276.875,326.492,261.031,329.007z"/>
	</g>
</g>
</svg>