<?xml version="1.0" encoding="iso-8859-1"?>
<!-- Uploaded to: SVG Repo, www.svgrepo.com, Generator: SVG Repo Mixer Tools -->
<svg fill="#000000" height="40px" width="40px" version="1.1" id="Capa_1" xmlns="http://www.w3.org/2000/svg" xmlns:xlink="http://www.w3.org/1999/xlink" 
	 viewBox="0 0 470 470" xml:space="preserve">
<g>
	<path d="M401.17,68.83C356.784,24.444,297.771,0,235,0S113.216,24.444,68.83,68.83C24.444,113.215,0,172.229,0,235
		s24.444,121.785,68.83,166.17C113.216,445.556,172.229,470,235,470s121.784-24.444,166.17-68.83
		C445.556,356.785,470,297.771,470,235S445.556,113.215,401.17,68.83z M235,455c-121.309,0-220-98.691-220-220S113.691,15,235,15
		s220,98.691,220,220S356.309,455,235,455z"/>
	<path d="M436.826,253.172c-1.371-1.59-3.345-2.533-5.443-2.599c-12.665-0.401-24.344-7.548-32.041-19.608
		c-1.378-2.158-3.762-3.465-6.322-3.465s-4.944,1.306-6.321,3.464c-5.426,8.499-12.765,14.524-21.036,17.511
		c-16.216-41.561-64.665-82.452-124.162-85.661V80.251c14.076,3.387,24.57,16.075,24.57,31.176c0,4.142,3.357,7.5,7.5,7.5
		s7.5-3.358,7.5-7.5c0-16.559-8.602-31.137-21.564-39.53c9.124,0.649,17.914,5.16,23.699,13.122c1.468,2.02,3.754,3.092,6.073,3.092
		c1.528,0,3.071-0.466,4.402-1.433c3.352-2.435,4.094-7.125,1.659-10.476c-9.729-13.391-25.251-20.137-40.666-19.314
		c7.76-4.831,17.516-6.344,26.871-3.305c3.936,1.28,8.171-0.875,9.45-4.815c1.28-3.939-0.876-8.17-4.815-9.45
		c-19.606-6.371-40.425,0.87-52.18,16.488c-11.756-15.618-32.577-22.856-52.18-16.488c-3.939,1.28-6.096,5.511-4.815,9.45
		c1.28,3.941,5.518,6.096,9.45,4.815c9.354-3.039,19.11-1.526,26.871,3.305c-15.415-0.823-30.937,5.923-40.666,19.314
		c-2.435,3.351-1.692,8.042,1.659,10.476c3.35,2.435,8.04,1.693,10.476-1.659c5.785-7.962,14.575-12.473,23.699-13.122
		c-12.962,8.393-21.564,22.971-21.564,39.53c0,4.142,3.357,7.5,7.5,7.5s7.5-3.358,7.5-7.5c0-15.101,10.494-27.789,24.57-31.176
		v82.565c-6.568,0.36-13.145,1.182-19.635,2.472c-4.063,0.807-6.701,4.755-5.895,8.818c0.808,4.062,4.757,6.704,8.818,5.894
		c8.002-1.59,16.148-2.396,24.211-2.396c54.738,0,100.021,35.638,116.265,72.848c-11.831-1.079-22.606-8.036-29.929-19.491
		c-1.378-2.155-3.759-3.459-6.316-3.46c-2.56,0-4.94,1.303-6.319,3.456c-8,12.495-20.098,19.661-33.192,19.661
		c-13.098,0-25.189-7.165-33.175-19.656c-1.379-2.156-3.761-3.46-6.319-3.46c-2.562,0.001-4.944,1.307-6.321,3.464
		c-7.974,12.489-20.069,19.652-33.187,19.652c-13.098,0-25.19-7.165-33.176-19.656c-1.378-2.155-3.759-3.459-6.316-3.46
		c-2.56,0-4.94,1.303-6.319,3.456c-7.755,12.112-19.363,19.196-31.994,19.62c11.131-25.436,35.713-49.132,65.04-62.023
		c3.792-1.667,5.515-6.092,3.848-9.884c-1.667-3.792-6.089-5.514-9.885-3.848c-34.375,15.112-62.102,42.614-74.098,72.968
		c-7.543-3.176-14.232-8.935-19.277-16.828c-1.378-2.156-3.761-3.46-6.319-3.46c-2.562,0.001-4.944,1.307-6.322,3.464
		c-7.698,12.061-19.387,19.208-32.069,19.609c-2.099,0.066-4.072,1.009-5.443,2.599c-1.371,1.59-2.013,3.682-1.769,5.768
		c5.786,49.506,29.545,95.214,66.901,128.706C135.964,421.407,184.509,440,235,440c45.24,0,88.169-14.517,124.145-41.982
		c3.293-2.514,3.924-7.22,1.41-10.513c-2.513-3.292-7.221-3.924-10.512-1.41C316.704,411.547,276.923,425,235,425
		c-93.882,0-173.276-68.423-187.68-160.366c11.265-2.217,21.561-8.214,29.707-17.284c7.397,8.169,16.634,13.885,26.625,16.555
		c0.423,0.226,0.872,0.417,1.348,0.563c0.732,0.225,1.473,0.332,2.201,0.332c0.103,0,0.203-0.02,0.306-0.025
		c2.956,0.546,5.961,0.842,8.996,0.842c14.808,0,29.002-6.692,39.504-18.292c10.494,11.6,24.686,18.292,39.499,18.292
		c14.828,0,29.023-6.689,39.511-18.285c10.493,11.595,24.682,18.285,39.491,18.285c14.809,0,29.002-6.691,39.505-18.291
		c10.492,11.598,24.68,18.291,39.485,18.291c14.826,0,29.018-6.681,39.505-18.264c8.14,9.065,18.422,15.06,29.671,17.278
		c-6.044,38.176-24.008,74.246-51.068,102.268c-2.877,2.979-2.794,7.728,0.186,10.605c2.98,2.877,7.729,2.795,10.605-0.185
		c31.08-32.185,51.038-74.227,56.198-118.379C438.839,256.854,438.197,254.763,436.826,253.172z"/>
	<path d="M170.487,310.616c-4.143,0-7.5,3.358-7.5,7.5s3.357,7.5,7.5,7.5h10c4.143,0,7.5-3.358,7.5-7.5s-3.357-7.5-7.5-7.5H170.487z
		"/>
	<path d="M111.51,280.616c-4.143,0-7.5,3.358-7.5,7.5s3.357,7.5,7.5,7.5h10c4.143,0,7.5-3.358,7.5-7.5s-3.357-7.5-7.5-7.5H111.51z"
		/>
	<path d="M358.497,280.616h-10c-4.143,0-7.5,3.358-7.5,7.5s3.357,7.5,7.5,7.5h10c4.143,0,7.5-3.358,7.5-7.5
		S362.64,280.616,358.497,280.616z"/>
</g>
</svg>